{"title":"Sucker Punch 2011 XViD BRRip DTRG","uid":6478838,"size":1543068399,"categoryP":"video","categoryS":"movies","magnet":"?xt=urn:btih:0eda8b0cd0108eea192849e0af10c2b5424aeee1&amp;dn=Sucker+Punch+2011+XViD+BRRip+DTRG&amp;tr=udp%3A%2F%2Ftracker.openbittorrent.com%3A80&amp;tr=udp%3A%2F%2Fopen.demonii.com%3A1337&amp;tr=udp%3A%2F%2Ftracker.coppersurfer.tk%3A6969&amp;tr=udp%3A%2F%2Fexodus.desync.com%3A6969","seeders":0,"leechers":1,"uploader":"SAFCukO09","files":3,"time":1308420047,"description":"Format : AVI\nFormat/Info : Audio Video Interleave\nFile size : 1.44 GiB\nDuration : 1h 49mn\nOverall bit rate : 1 874 Kbps\nWriting library : VirtualDub build 32842/release\n\nVideo\nID : 0\nFormat : MPEG-4 Visual\nFormat profile : Advanced Simple@L5\nFormat settings, BVOP : 2\nFormat settings, QPel : No\nFormat settings, GMC : No warppoints\nFormat settings, Matrix : Default (H.263)\nMuxing mode : Packed bitstream\nCodec ID : XVID\nCodec ID/Hint : XviD\nDuration : 1h 49mn\nBit rate : 1 417 Kbps\nWidth : 720 pixels\nHeight : 288 pixels\nDisplay aspect ratio : 2.500\nFrame rate : 23.976 fps\nColor space : YUV\nChroma subsampling : 4:2:0\nBit depth : 8 bits\nScan type : Progressive\nCompression mode : Lossy\nBits/(Pixel*Frame) : 0.285\nStream size : 1.09 GiB (76%)\nWriting library : XviD 64\n\nAudio\nID : 1\nFormat : AC-3\nFormat/Info : Audio Coding 3\nMode extension : CM (complete main)\nCodec ID : 2000\nDuration : 1h 49mn\nBit rate mode : Constant\nBit rate : 448 Kbps\nChannel(s) : 6 channels\nChannel positions : Front: L C R, Side: L R, LFE\nSampling rate : 48.0 KHz\nBit depth : 16 bits\nCompression mode : Lossy\nStream size : 352 MiB (24%)\nAlignment : Aligned on interleaves\nInterleave, duration : 42 ms (1.00 video frame)\nInterleave, preload duration : 512 ms\n\n\n\n\n\n &lt;a href=&quot;\nhttp://www.imdb.com/title/tt0978764/&quot; rel=&quot;nofollow&quot; target=&quot;_NEW&quot;&gt;\nhttp://www.imdb.com/title/tt0978764/&lt;/a&gt;\n\n\n\n\n\n\n\nStoryline\n\nA young girl (Baby Doll) is locked away in a mental asylum by her abusive stepfather where she will undergo a lobotomy in five days' time. Faced with unimaginable odds, she retreats to a fantastical world in her imagination where she and four other female inmates at the asylum, plot to escape the facility. The lines between reality and fantasy blur as Baby Doll and her four companions, as well as a mysterious guide, fight to retrieve the five items they need that will allow them to break free from their captors before it's too late...\n\n\n\n\n\n\n\n\n\n\n\n\n\n\n\n\n\n\n\nSource Used\n\nSucker Punch 2011 720p Blu-Ray x264-Felony .......... Thanks\n\n\nGreetz to IMAGiNE,Flawl3ss,DiLLoN,BDK,NOiR,TOXiC,THC,Ez,Rx,Boobyblue,TaRiQ786,LKRG,","torrent":{"xt":"urn:btih:0eda8b0cd0108eea192849e0af10c2b5424aeee1","amp;dn":"Sucker+Punch+2011+XViD+BRRip+DTRG","amp;tr":["udp%3A%2F%2Ftracker.openbittorrent.com%3A80","udp%3A%2F%2Fopen.demonii.com%3A1337","udp%3A%2F%2Ftracker.coppersurfer.tk%3A6969","udp%3A%2F%2Fexodus.desync.com%3A6969"],"infoHash":"0eda8b0cd0108eea192849e0af10c2b5424aeee1","infoHashBuffer":{"type":"Buffer","data":[14,218,139,12,208,16,142,234,25,40,73,224,175,16,194,181,66,74,238,225]},"announce":[],"urlList":[]}}